# xmcd
#
# Track frame offsets:
#	150
#	14590
#	29663
#	43815
#	58255
#	73718
#	89008
#	103960
#	119313
#	135738
#	152880
#	165290
#	181203
#	194073
#
# Disc length: 2795 seconds
#
# Revision: 1
# Processed by: cddbd v1.5.2PL0 Copyright (c) Steve Scherf et al.
# Submitted via: audiograbber 1.83.01
#
DISCID=d30ae90e
DTITLE=Various Artist - Spotlight On Hits - Country Vol 20
DYEAR=1900
DGENRE=Country
TTITLE0=Alan Jackson - Summertime Blues
TTITLE1=Lee Roy Parnell - Take These Chains From My Heart
TTITLE2=Sammy Kershaw - National Working Woman's Holiday
TTITLE3=Diamond Rio - Love A Little Stronger
TTITLE4=Martina McBride - Independence Day
TTITLE5=Tanya Tucker - Hangin' In
TTITLE6=Mary Chapin-Carpenter - I Take My Chances
TTITLE7=Doug Stone - More Love
TTITLE8=Lorrie Morgan - If You Came Back From Heaven
TTITLE9=Marty Stuart - Love And Luck
TTITLE10=Linda Davis - Love Didn't Do It
TTITLE11=Emmylou Harris - Crescent City
TTITLE12=Tracy Byrd - Lifestyles Of The Not So Rich And Famous
TTITLE13=Gibson Miller Band - Mama Don't Let Your Babies Grow Up To Be Cowboys
EXTD=
EXTT0=
EXTT1=
EXTT2=
EXTT3=
EXTT4=
EXTT5=
EXTT6=
EXTT7=
EXTT8=
EXTT9=
EXTT10=
EXTT11=
EXTT12=
EXTT13=
PLAYORDER=
